# Blender v2.63 (sub 0) OBJ File: ''
# www.blender.org
mtllib cube.mtl
o Cube
v 1.000000 -1.000000 -1.000000
v 1.000000 -1.000000 1.000000
v -1.000000 -1.000000 1.000000
v -1.000000 -1.000000 -1.000000
v 1.000000 1.000000 -0.999999
v 0.999999 1.000000 1.000001
v -1.000000 1.000000 1.000000
v -1.000000 1.000000 -1.000000
vt 0.656484 0.413188
vt 0.554096 0.258609
vt 0.326529 0.365383
vt 0.471826 0.465755
vt 0.683762 0.642603
vt 0.464409 0.658816
vt 0.282515 0.620653
vt 0.565467 0.579574
vn 0.000000 -1.000000 0.000000
vn 0.000000 1.000000 0.000000
vn 1.000000 0.000000 0.000000
vn -0.000000 -0.000000 1.000000
vn -1.000000 -0.000000 -0.000000
vn 0.000000 0.000000 -1.000000
usemtl Material
s off
f 1/1/1 2/2/1 3/3/1
f 1/1/1 3/3/1 4/4/1
f 5/5/2 8/6/2 7/7/2
f 5/5/2 7/7/2 6/8/2
f 1/1/3 5/5/3 6/8/3
f 1/1/3 6/8/3 2/2/3
f 2/2/4 6/8/4 7/7/4
f 2/2/4 7/7/4 3/3/4
f 3/3/5 7/7/5 8/6/5
f 3/3/5 8/6/5 4/4/5
f 5/5/6 1/1/6 4/4/6
f 5/5/6 4/4/6 8/6/6
