# Blender v2.63 (sub 0) OBJ File: 'simple sky.blend'
# www.blender.org
mtllib sky.mtl
o Cube_Cube.001
v -1.000000 -1.000000 1.000000
v -1.000000 -1.000000 -1.000000
v 1.000000 -1.000000 -1.000000
v 1.000000 -1.000000 1.000000
v -1.000000 1.000000 1.000000
v -1.000000 1.000000 -1.000000
v 1.000000 1.000000 -1.000000
v 1.000000 1.000000 1.000000
v 1.000000 1.000000 1.000000
v -1.000000 1.000000 1.000000
v -1.000000 1.000000 -1.000000
v 1.000000 1.000000 -1.000000
vt 3.000263 0.999737
vt 3.000263 0.000263
vt 3.999737 0.000263
vt 3.999737 0.999737
vt 0.000245 0.999755
vt 0.000245 0.000245
vt 0.999755 0.000245
vt 0.999755 0.999755
vt 1.000263 0.999737
vt 1.000263 0.000263
vt 1.999737 0.000263
vt 1.999737 0.999737
vt 2.999737 0.000263
vt 2.999737 0.999737
vt 2.000263 0.999737
vt 2.000263 0.000263
vt 5.000264 0.000263
vt 5.999736 0.000263
vt 5.999736 0.999737
vt 5.000264 0.999737
vt 4.999736 0.000263
vt 4.999736 0.999737
vt 4.000264 0.999737
vt 4.000264 0.000263
vn 1.000000 0.000000 -0.000000
vn 0.000000 0.000000 1.000000
vn -1.000000 0.000000 -0.000000
vn -0.000000 0.000000 -1.000000
vn 0.000000 1.000000 -0.000000
vn 0.000000 -1.000000 0.000000
usemtl _CGSkies_0248_free.jpg
s off
f 5/1/1 1/2/1 2/3/1
f 5/1/1 2/3/1 6/4/1
f 6/5/2 2/6/2 3/7/2
f 6/5/2 3/7/2 7/8/2
f 7/9/3 3/10/3 4/11/3
f 7/9/3 4/11/3 8/12/3
f 1/13/4 5/14/4 8/15/4
f 1/13/4 8/15/4 4/16/4
f 1/17/5 4/18/5 3/19/5
f 1/17/5 3/19/5 2/20/5
f 12/21/6 9/22/6 10/23/6
f 12/21/6 10/23/6 11/24/6
